<svg width="25" height="24" viewBox="0 0 25 24" fill="none" xmlns="http://www.w3.org/2000/svg">
<path d="M9.15223 23.5882C15.7374 25.3031 22.5061 21.5051 24.2705 15.1051C26.035 8.70505 22.1271 2.12664 15.542 0.411766C8.95685 -1.30311 2.18816 2.49494 0.423677 8.89494C-1.3408 15.2949 2.5671 21.8734 9.15223 23.5882Z" fill="#A087EA"/>
<path d="M24.2705 15.1051C23.4232 18.1784 21.3544 20.7988 18.5191 22.3897C15.6839 23.9806 12.3145 24.4117 9.15223 23.5882C5.98994 22.7647 3.29377 20.754 1.65685 17.9985C0.0199307 15.243 -0.423656 11.9683 0.423677 8.89494C0.972402 6.88341 2.0572 5.04807 3.56865 3.57403C2.94093 6.12085 3.18854 8.79739 4.27364 11.1945C5.35873 13.5917 7.22162 15.5776 9.57756 16.8487C11.9335 18.1198 14.6529 18.6062 17.3201 18.2335C19.9873 17.8608 22.4556 16.6496 24.3477 14.7849C24.3289 14.8934 24.2997 14.9993 24.2705 15.1051Z" fill="#7A57E1"/>
<path d="M20.9189 20.6314C19.5303 21.9342 17.8468 22.9025 16.0034 23.4584C14.16 24.0142 12.2082 24.1423 10.3047 23.8322C8.40116 23.5221 6.59898 22.7825 5.04285 21.6728C3.48673 20.5631 2.22003 19.1143 1.34447 17.4426C0.468906 15.7709 0.00888258 13.9229 0.00133836 12.0471C-0.00620586 10.1713 0.438939 8.31994 1.30103 6.64164C2.16312 4.96334 3.41812 3.50489 4.96527 2.38342C6.51242 1.26194 8.3086 0.508687 10.2096 0.184141C8.30802 1.96831 7.04592 4.29857 6.60899 6.83202C6.17205 9.36547 6.58336 11.9683 7.78237 14.2576C8.98139 16.5469 10.9048 18.4017 13.2696 19.549C15.6344 20.6964 18.3157 21.0758 20.9189 20.6314Z" fill="#7A57E1"/>
<path d="M20.9189 20.6314C18.574 22.7843 15.4552 23.9596 12.2299 23.9057C9.00466 23.8518 5.92922 22.5731 3.66184 20.3432C1.39446 18.1132 0.115299 15.1093 0.0981428 11.9743C0.0809869 8.83924 1.3272 5.82224 3.57004 3.56899C2.93659 6.12907 3.18904 8.82069 4.28833 11.2273C5.38762 13.6338 7.27244 15.6211 9.65107 16.8816C11.0503 18.381 12.8176 19.5113 14.788 20.167C16.7585 20.8228 18.8677 20.9825 20.9189 20.6314Z" fill="#5427D8"/>
<path d="M18.3274 12.4774C19.759 12.8502 21.2304 12.0245 21.614 10.6332C21.9976 9.24188 21.1481 7.81179 19.7165 7.43899C18.285 7.06619 16.8135 7.89186 16.4299 9.28316C16.0463 10.6745 16.8959 12.1046 18.3274 12.4774Z" fill="#7A57E1"/>
<path d="M18.1141 17.2819C18.6867 17.431 19.2753 17.1007 19.4287 16.5442C19.5822 15.9877 19.2423 15.4157 18.6697 15.2665C18.0971 15.1174 17.5085 15.4477 17.3551 16.0042C17.2016 16.5607 17.5415 17.1328 18.1141 17.2819Z" fill="#7A57E1"/>
<path d="M10.7919 11.595C11.3645 11.7441 11.9531 11.4138 12.1065 10.8573C12.2599 10.3008 11.9201 9.72877 11.3475 9.57965C10.7749 9.43053 10.1863 9.76079 10.0329 10.3173C9.87944 10.8738 10.2193 11.4459 10.7919 11.595Z" fill="#7A57E1"/>
<path d="M4.4593 16.426C5.03192 16.5751 5.6205 16.2449 5.77393 15.6883C5.92736 15.1318 5.58755 14.5598 5.01493 14.4107C4.44231 14.2615 3.85372 14.5918 3.70029 15.1483C3.54686 15.7048 3.88668 16.2769 4.4593 16.426Z" fill="#3B0EBF"/>
<path d="M14.8102 5.08129C15.3828 5.23041 15.9714 4.90015 16.1249 4.34363C16.2783 3.78711 15.9385 3.21507 15.3659 3.06595C14.7932 2.91683 14.2047 3.2471 14.0512 3.80362C13.8978 4.36014 14.2376 4.93218 14.8102 5.08129Z" fill="#7A57E1"/>
<path d="M20.9658 11.755C20.6784 12.0493 20.3242 12.2744 19.9316 12.4124C19.5389 12.5503 19.1185 12.5973 18.7039 12.5496C18.2892 12.5019 17.8918 12.3608 17.5431 12.1376C17.1944 11.9143 16.9042 11.6151 16.6954 11.2637C16.4866 10.9122 16.3651 10.5183 16.3405 10.1132C16.316 9.70811 16.389 9.30303 16.5538 8.93019C16.7186 8.55734 16.9706 8.22702 17.2899 7.96548C17.6091 7.70395 17.9868 7.51843 18.3928 7.42368C18.0825 7.73826 17.8594 8.12426 17.7446 8.54549C17.5604 9.21362 17.6568 9.9255 18.0126 10.5245C18.3685 11.1236 18.9546 11.5607 19.6421 11.7397C20.0749 11.8536 20.5303 11.8589 20.9658 11.755Z" fill="#5427D8"/>
<path d="M19.2215 16.9331C19.112 17.0647 18.9711 17.1684 18.8111 17.2353C18.651 17.3022 18.4767 17.3303 18.303 17.317C18.1294 17.3038 17.9616 17.2497 17.8143 17.1594C17.667 17.069 17.5445 16.9452 17.4574 16.7986C17.3703 16.652 17.3212 16.487 17.3144 16.3178C17.3076 16.1486 17.3432 15.9804 17.4182 15.8276C17.4933 15.6748 17.6054 15.5421 17.7451 15.4409C17.8847 15.3396 18.0476 15.2729 18.2196 15.2465C18.1214 15.3594 18.0506 15.4923 18.0124 15.6354C17.9396 15.9026 17.9786 16.187 18.1208 16.4263C18.263 16.6657 18.4969 16.8407 18.7714 16.9131C18.918 16.9524 19.0718 16.9593 19.2215 16.9331Z" fill="#5427D8"/>
<path d="M11.8993 11.2462C11.7897 11.3778 11.6489 11.4815 11.4889 11.5484C11.3288 11.6153 11.1545 11.6434 10.9808 11.6301C10.8072 11.6169 10.6394 11.5628 10.4921 11.4725C10.3447 11.3821 10.2222 11.2583 10.1351 11.1117C10.048 10.9651 9.99898 10.8001 9.99216 10.6309C9.98535 10.4617 10.021 10.2935 10.096 10.1407C10.1711 9.98794 10.2832 9.8552 10.4229 9.75396C10.5625 9.65272 10.7253 9.58603 10.8974 9.55964C10.7992 9.67252 10.7284 9.80541 10.6902 9.94848C10.6174 10.2157 10.6564 10.5001 10.7986 10.7395C10.9408 10.9788 11.1747 11.1538 11.4492 11.2262C11.5958 11.2655 11.7496 11.2724 11.8993 11.2462Z" fill="#5427D8"/>
<path d="M15.9176 4.73247C15.8081 4.8641 15.6672 4.96784 15.5072 5.03473C15.3472 5.10163 15.1728 5.12967 14.9992 5.11643C14.8255 5.10319 14.6578 5.04908 14.5104 4.95876C14.3631 4.86844 14.2406 4.74463 14.1535 4.59801C14.0664 4.4514 14.0173 4.28638 14.0105 4.11722C14.0037 3.94805 14.0393 3.77981 14.1144 3.62702C14.1894 3.47424 14.3016 3.3415 14.4412 3.24026C14.5808 3.13902 14.7437 3.07233 14.9158 3.04594C14.8176 3.15883 14.7468 3.29172 14.7085 3.43478C14.6357 3.702 14.6747 3.98636 14.8169 4.22575C14.9591 4.46515 15.193 4.64012 15.4675 4.71246C15.6141 4.75182 15.768 4.75866 15.9176 4.73247Z" fill="#5427D8"/>
<path d="M11.1441 6.28662C11.4304 6.36118 11.7247 6.19605 11.8015 5.91779C11.8782 5.63953 11.7083 5.35351 11.4219 5.27895C11.1356 5.20439 10.8413 5.36952 10.7646 5.64779C10.6879 5.92605 10.8578 6.21206 11.1441 6.28662Z" fill="#7A57E1"/>
<path d="M8.80995 20.799C9.09626 20.8736 9.39055 20.7085 9.46727 20.4302C9.54399 20.152 9.37408 19.8659 9.08777 19.7914C8.80146 19.7168 8.50717 19.8819 8.43045 20.1602C8.35373 20.4385 8.52364 20.7245 8.80995 20.799Z" fill="#3B0EBF"/>
<path d="M1.94169 11.4503C2.228 11.5249 2.52229 11.3597 2.599 11.0815C2.67572 10.8032 2.50581 10.5172 2.2195 10.4426C1.93319 10.3681 1.6389 10.5332 1.56218 10.8115C1.48547 11.0897 1.65538 11.3757 1.94169 11.4503Z" fill="#3B0EBF"/>
</svg>
