<svg width="83" height="24" viewBox="0 0 83 24" fill="none" xmlns="http://www.w3.org/2000/svg">
<path d="M9.15223 23.5882C15.7374 25.3031 22.5061 21.5051 24.2705 15.1051C26.035 8.70505 22.1271 2.12664 15.542 0.411766C8.95685 -1.30311 2.18816 2.49494 0.423677 8.89494C-1.3408 15.2949 2.5671 21.8734 9.15223 23.5882Z" fill="#A087EA"/>
<path d="M24.2705 15.1051C23.4232 18.1784 21.3544 20.7988 18.5191 22.3897C15.6839 23.9806 12.3145 24.4117 9.15223 23.5882C5.98994 22.7647 3.29377 20.754 1.65685 17.9985C0.0199307 15.243 -0.423656 11.9683 0.423677 8.89494C0.972402 6.88341 2.0572 5.04807 3.56865 3.57403C2.94093 6.12085 3.18854 8.79739 4.27364 11.1945C5.35873 13.5917 7.22162 15.5776 9.57756 16.8487C11.9335 18.1198 14.6529 18.6062 17.3201 18.2335C19.9873 17.8608 22.4556 16.6496 24.3477 14.7849C24.3289 14.8934 24.2997 14.9993 24.2705 15.1051Z" fill="#7A57E1"/>
<path d="M20.9189 20.6314C19.5303 21.9342 17.8468 22.9025 16.0034 23.4584C14.16 24.0142 12.2082 24.1423 10.3047 23.8322C8.40116 23.5221 6.59898 22.7825 5.04285 21.6728C3.48673 20.5631 2.22003 19.1143 1.34447 17.4426C0.468906 15.7709 0.00888258 13.9229 0.00133836 12.0471C-0.00620586 10.1713 0.438939 8.31994 1.30103 6.64164C2.16312 4.96334 3.41812 3.50489 4.96527 2.38342C6.51242 1.26194 8.3086 0.508687 10.2096 0.184141C8.30802 1.96831 7.04592 4.29857 6.60899 6.83202C6.17205 9.36547 6.58336 11.9683 7.78237 14.2576C8.98139 16.5469 10.9048 18.4017 13.2696 19.549C15.6344 20.6964 18.3157 21.0758 20.9189 20.6314Z" fill="#7A57E1"/>
<path d="M20.9189 20.6314C18.574 22.7843 15.4552 23.9596 12.2299 23.9057C9.00466 23.8518 5.92922 22.5731 3.66184 20.3432C1.39446 18.1132 0.115299 15.1093 0.0981428 11.9743C0.0809869 8.83924 1.3272 5.82224 3.57004 3.56899C2.93659 6.12907 3.18904 8.82069 4.28833 11.2273C5.38762 13.6338 7.27244 15.6211 9.65107 16.8816C11.0503 18.381 12.8176 19.5113 14.788 20.167C16.7585 20.8228 18.8677 20.9825 20.9189 20.6314Z" fill="#5427D8"/>
<path d="M18.3274 12.4774C19.759 12.8502 21.2304 12.0245 21.614 10.6332C21.9976 9.24188 21.1481 7.81179 19.7165 7.43899C18.285 7.06619 16.8135 7.89186 16.4299 9.28316C16.0463 10.6745 16.8959 12.1046 18.3274 12.4774Z" fill="#7A57E1"/>
<path d="M18.1141 17.2819C18.6867 17.431 19.2753 17.1007 19.4287 16.5442C19.5822 15.9877 19.2423 15.4157 18.6697 15.2665C18.0971 15.1174 17.5085 15.4477 17.3551 16.0042C17.2016 16.5607 17.5415 17.1328 18.1141 17.2819Z" fill="#7A57E1"/>
<path d="M10.7919 11.595C11.3645 11.7441 11.9531 11.4138 12.1065 10.8573C12.2599 10.3008 11.9201 9.72877 11.3475 9.57965C10.7749 9.43053 10.1863 9.76079 10.0329 10.3173C9.87944 10.8738 10.2193 11.4459 10.7919 11.595Z" fill="#7A57E1"/>
<path d="M4.4593 16.426C5.03192 16.5751 5.6205 16.2449 5.77393 15.6883C5.92736 15.1318 5.58755 14.5598 5.01493 14.4107C4.44231 14.2615 3.85372 14.5918 3.70029 15.1483C3.54686 15.7048 3.88668 16.2769 4.4593 16.426Z" fill="#3B0EBF"/>
<path d="M14.8102 5.08129C15.3828 5.23041 15.9714 4.90015 16.1249 4.34363C16.2783 3.78711 15.9385 3.21507 15.3659 3.06595C14.7932 2.91683 14.2047 3.2471 14.0512 3.80362C13.8978 4.36014 14.2376 4.93218 14.8102 5.08129Z" fill="#7A57E1"/>
<path d="M20.9658 11.755C20.6784 12.0493 20.3242 12.2744 19.9316 12.4124C19.5389 12.5503 19.1185 12.5973 18.7039 12.5496C18.2892 12.5019 17.8918 12.3608 17.5431 12.1376C17.1944 11.9143 16.9042 11.6151 16.6954 11.2637C16.4866 10.9122 16.3651 10.5183 16.3405 10.1132C16.316 9.70811 16.389 9.30303 16.5538 8.93019C16.7186 8.55734 16.9706 8.22702 17.2899 7.96548C17.6091 7.70395 17.9868 7.51843 18.3928 7.42368C18.0825 7.73826 17.8594 8.12426 17.7446 8.54549C17.5604 9.21362 17.6568 9.9255 18.0126 10.5245C18.3685 11.1236 18.9546 11.5607 19.6421 11.7397C20.0749 11.8536 20.5303 11.8589 20.9658 11.755Z" fill="#5427D8"/>
<path d="M19.2215 16.9331C19.112 17.0647 18.9711 17.1684 18.8111 17.2353C18.651 17.3022 18.4767 17.3303 18.303 17.317C18.1294 17.3038 17.9616 17.2497 17.8143 17.1594C17.667 17.069 17.5445 16.9452 17.4574 16.7986C17.3703 16.652 17.3212 16.487 17.3144 16.3178C17.3076 16.1486 17.3432 15.9804 17.4182 15.8276C17.4933 15.6748 17.6054 15.5421 17.7451 15.4409C17.8847 15.3396 18.0476 15.2729 18.2196 15.2465C18.1214 15.3594 18.0506 15.4923 18.0124 15.6354C17.9396 15.9026 17.9786 16.187 18.1208 16.4263C18.263 16.6657 18.4969 16.8407 18.7714 16.9131C18.918 16.9524 19.0718 16.9593 19.2215 16.9331Z" fill="#5427D8"/>
<path d="M11.8993 11.2462C11.7897 11.3778 11.6489 11.4815 11.4889 11.5484C11.3288 11.6153 11.1545 11.6434 10.9808 11.6301C10.8072 11.6169 10.6394 11.5628 10.4921 11.4725C10.3447 11.3821 10.2222 11.2583 10.1351 11.1117C10.048 10.9651 9.99898 10.8001 9.99216 10.6309C9.98535 10.4617 10.021 10.2935 10.096 10.1407C10.1711 9.98794 10.2832 9.8552 10.4229 9.75396C10.5625 9.65272 10.7253 9.58603 10.8974 9.55964C10.7992 9.67252 10.7284 9.80541 10.6902 9.94848C10.6174 10.2157 10.6564 10.5001 10.7986 10.7395C10.9408 10.9788 11.1747 11.1538 11.4492 11.2262C11.5958 11.2655 11.7496 11.2724 11.8993 11.2462Z" fill="#5427D8"/>
<path d="M15.9176 4.73247C15.8081 4.8641 15.6672 4.96784 15.5072 5.03473C15.3472 5.10163 15.1728 5.12967 14.9992 5.11643C14.8255 5.10319 14.6578 5.04908 14.5104 4.95876C14.3631 4.86844 14.2406 4.74463 14.1535 4.59801C14.0664 4.4514 14.0173 4.28638 14.0105 4.11722C14.0037 3.94805 14.0393 3.77981 14.1144 3.62702C14.1894 3.47424 14.3016 3.3415 14.4412 3.24026C14.5808 3.13902 14.7437 3.07233 14.9158 3.04594C14.8176 3.15883 14.7468 3.29172 14.7085 3.43478C14.6357 3.702 14.6747 3.98636 14.8169 4.22575C14.9591 4.46515 15.193 4.64012 15.4675 4.71246C15.6141 4.75182 15.768 4.75866 15.9176 4.73247Z" fill="#5427D8"/>
<path d="M11.1441 6.28662C11.4304 6.36118 11.7247 6.19605 11.8015 5.91779C11.8782 5.63953 11.7083 5.35351 11.4219 5.27895C11.1356 5.20439 10.8413 5.36952 10.7646 5.64779C10.6879 5.92605 10.8578 6.21206 11.1441 6.28662Z" fill="#7A57E1"/>
<path d="M8.80995 20.799C9.09626 20.8736 9.39055 20.7085 9.46727 20.4302C9.54399 20.152 9.37408 19.8659 9.08777 19.7914C8.80146 19.7168 8.50717 19.8819 8.43045 20.1602C8.35373 20.4385 8.52364 20.7245 8.80995 20.799Z" fill="#3B0EBF"/>
<path d="M1.94169 11.4503C2.228 11.5249 2.52229 11.3597 2.599 11.0815C2.67572 10.8032 2.50581 10.5172 2.2195 10.4426C1.93319 10.3681 1.6389 10.5332 1.56218 10.8115C1.48547 11.0897 1.65538 11.3757 1.94169 11.4503Z" fill="#3B0EBF"/>
<path d="M54.2606 7.51953C54.7721 7.51954 55.2225 7.69768 55.5731 8.05566C55.9231 8.39853 56.0916 8.83325 56.0916 9.32129V14.7402C56.0916 16.3438 55.63 17.6733 54.6551 18.6689C53.668 19.677 52.2717 20.1465 50.5506 20.1465C48.8297 20.1464 47.4342 19.6768 46.4471 18.6689L46.4432 18.666L46.2694 18.4746C45.43 17.5023 45.0321 16.2412 45.0321 14.7402V9.32129C45.0321 8.83325 45.2006 8.39853 45.5506 8.05566C45.9012 7.69767 46.3516 7.51957 46.8631 7.51953C47.3747 7.51953 47.826 7.69762 48.1766 8.05566C48.5264 8.39848 48.6951 8.8334 48.6952 9.32129V14.7402C48.6952 15.5425 48.8782 16.0457 49.1522 16.3438C49.4188 16.6201 49.8523 16.7997 50.5506 16.7998C51.267 16.7998 51.7065 16.6184 51.9715 16.3438C52.2456 16.0457 52.4295 15.5425 52.4295 14.7402V9.32129C52.4295 8.83326 52.598 8.39853 52.9481 8.05566C53.2986 7.69769 53.749 7.51953 54.2606 7.51953ZM81.0096 7.30664C81.5141 7.30664 81.9637 7.47194 82.3172 7.81543C82.6747 8.16286 82.8416 8.60961 82.8416 9.1084V18.1318C82.8416 18.6222 82.6717 19.0603 82.328 19.4141L82.3221 19.4189L82.3172 19.4238C81.9636 19.7675 81.5143 19.9336 81.0096 19.9336C80.505 19.9336 80.0556 19.7675 79.702 19.4238L79.6922 19.4141C79.5875 19.3063 79.4982 19.1908 79.4256 19.0684C79.3984 19.0888 79.3705 19.1086 79.3426 19.1289C78.9486 19.4161 78.4897 19.6571 77.9715 19.8555L77.9676 19.8574L77.9637 19.8584C77.4317 20.0523 76.8576 20.1464 76.2469 20.1465C75.1454 20.1465 74.1352 19.8738 73.2303 19.3242L73.2244 19.3203C72.3269 18.7595 71.6164 17.9969 71.0946 17.0439L71.0907 17.0361C70.5807 16.0603 70.3319 14.9564 70.3319 13.7373C70.3319 12.5053 70.5796 11.3997 71.0916 10.4355L71.0936 10.4336L71.2967 10.0811C71.7917 9.28043 72.4265 8.63455 73.202 8.1543C74.0915 7.58924 75.0818 7.30664 76.159 7.30664C76.8403 7.30667 77.4781 7.40658 78.0672 7.61328C78.5557 7.78471 78.9956 7.99948 79.3817 8.25977C79.4622 8.10925 79.5673 7.96898 79.6971 7.8418C80.0476 7.48399 80.4982 7.30667 81.0096 7.30664ZM34.8446 4C35.3364 4 35.7693 4.18324 36.1209 4.52051C36.5034 4.85802 36.6981 5.29766 36.6981 5.80176V16.4375H41.9129C42.4125 16.4375 42.8579 16.5999 43.2098 16.9365C43.5848 17.266 43.7664 17.7015 43.7664 18.1963C43.7664 18.6877 43.5771 19.1179 43.2098 19.4551V19.4561C42.8544 19.7811 42.4083 19.9336 41.9129 19.9336H34.7791C34.2746 19.9336 33.8238 19.7687 33.4598 19.4346L33.4491 19.4248L33.4393 19.4141C33.0955 19.0602 32.9256 18.6222 32.9256 18.1318V5.80176C32.9256 5.3046 33.1081 4.8661 33.4764 4.52539C33.8455 4.16932 34.316 4.00007 34.8446 4ZM64.7069 7.30664C65.8489 7.30664 66.8039 7.53705 67.4881 8.07812C68.1492 8.58967 68.5929 9.27315 68.8241 10.1035C69.0585 10.8807 69.1727 11.7381 69.1727 12.6709V18.1318C69.1727 18.6222 69.0029 19.0602 68.659 19.4141L68.6493 19.4238C68.2957 19.7675 67.8453 19.9336 67.3407 19.9336C66.8362 19.9335 66.3865 19.7674 66.033 19.4238L66.0233 19.4141C65.6794 19.0602 65.5096 18.6222 65.5096 18.1318V12.6709C65.5096 12.2465 65.4503 11.8831 65.3407 11.5752L65.3328 11.5537C65.2467 11.2714 65.092 11.0598 64.8651 10.8994C64.6655 10.7584 64.3283 10.6533 63.785 10.6533C63.27 10.6533 62.8664 10.7529 62.5516 10.9268C62.2364 11.1091 61.9958 11.3496 61.8221 11.6523C61.6633 11.9403 61.578 12.2759 61.578 12.6709V18.1318C61.578 18.6222 61.4081 19.0602 61.0643 19.4141L61.0594 19.4189L61.0536 19.4238C60.7 19.7675 60.2506 19.9336 59.7459 19.9336C59.2414 19.9335 58.7918 19.7674 58.4383 19.4238L58.4286 19.4141C58.0847 19.0602 57.9149 18.6222 57.9149 18.1318V9.32129C57.9149 8.83329 58.0834 8.39852 58.4334 8.05566C58.7839 7.69771 59.2345 7.51962 59.7459 7.51953C60.2575 7.51953 60.7088 7.69762 61.0594 8.05566C61.2175 8.21057 61.3384 8.38436 61.4237 8.57324C61.5663 8.44873 61.7175 8.32927 61.8768 8.21484C62.2564 7.94218 62.6819 7.72865 63.1493 7.57129C63.6351 7.39325 64.1559 7.30666 64.7069 7.30664ZM79.9188 18.8916C79.9323 18.9112 79.947 18.9301 79.9618 18.9492C79.947 18.9301 79.9323 18.9112 79.9188 18.8916ZM79.8494 18.7783C79.8624 18.8021 79.8759 18.8256 79.8905 18.8486C79.8759 18.8256 79.8624 18.8021 79.8494 18.7783ZM79.828 18.7373C79.8297 18.7409 79.832 18.7445 79.8338 18.748C79.8257 18.7321 79.8188 18.7155 79.8114 18.6992C79.8171 18.7118 79.8218 18.7249 79.828 18.7373ZM79.034 18.7295L79.2293 18.5811C79.2375 18.5746 79.2447 18.567 79.2528 18.5605C79.1831 18.6164 79.1107 18.6736 79.034 18.7295ZM79.7625 18.5781C79.767 18.5916 79.7722 18.6049 79.7772 18.6182C79.7722 18.6049 79.767 18.5916 79.7625 18.5781ZM79.7244 18.4375C79.728 18.4539 79.7321 18.4702 79.7362 18.4863C79.7321 18.4702 79.728 18.4539 79.7244 18.4375ZM79.4217 18.417C79.4431 18.3982 79.4655 18.3811 79.4862 18.3623C79.4655 18.3811 79.4431 18.3982 79.4217 18.417ZM79.6063 18.2461C79.6354 18.2173 79.6659 18.1909 79.6932 18.1621V18.1602C79.6656 18.1892 79.6358 18.217 79.6063 18.2461ZM76.576 10.6533C76.0394 10.6533 75.5844 10.7856 75.1932 11.0391C74.7915 11.2993 74.469 11.6552 74.2284 12.1211C74.0034 12.5846 73.8856 13.1203 73.8856 13.7373C73.8856 14.3384 74.0027 14.8672 74.2284 15.332C74.469 15.798 74.7915 16.1547 75.1932 16.415C75.5844 16.6684 76.0396 16.7998 76.576 16.7998C77.1296 16.7998 77.5912 16.6671 77.9803 16.415C78.3809 16.1555 78.6948 15.8005 78.9207 15.3369L78.9227 15.332L78.9256 15.3271C79.1643 14.8633 79.2879 14.3365 79.2879 13.7373C79.2879 13.1221 79.1635 12.5884 78.9256 12.126L78.9227 12.1211L78.9207 12.1172C78.6947 11.6535 78.3809 11.2986 77.9803 11.0391C77.5911 10.7869 77.1297 10.6534 76.576 10.6533ZM61.0633 9.6875V9.68945C61.0697 9.68149 61.0754 9.67302 61.0819 9.66504C61.0758 9.6726 61.0693 9.67997 61.0633 9.6875ZM61.3817 9.32129C61.3558 9.34948 61.3296 9.37763 61.3045 9.40625C61.3467 9.35799 61.3916 9.31168 61.4364 9.26465C61.4182 9.28372 61.3994 9.30202 61.3817 9.32129ZM61.0399 9.0625C61.0547 9.14503 61.0633 9.23115 61.0633 9.32129L61.0594 9.20312C61.0591 9.19954 61.0587 9.19596 61.0584 9.19238C61.0547 9.14811 61.0475 9.10478 61.0399 9.0625ZM61.8885 8.84375C61.7763 8.93599 61.6699 9.03107 61.5692 9.12891C61.5586 9.13913 61.5483 9.14987 61.5379 9.16016C61.6479 9.05138 61.7645 8.94569 61.8885 8.84375ZM79.6922 9.14551V9.14258C79.6799 9.13129 79.6677 9.11967 79.6551 9.1084C79.628 9.08421 79.5986 9.0612 79.5702 9.03711C79.6125 9.07299 79.6528 9.1094 79.6922 9.14551ZM61.0321 9.02344C61.0279 9.00375 61.0244 8.98408 61.0194 8.96484C61.0183 8.96058 61.0156 8.95639 61.0145 8.95215C61.0209 8.97564 61.027 8.99928 61.0321 9.02344ZM79.2537 8.78809C79.3424 8.85192 79.4256 8.9169 79.5047 8.98145C79.4256 8.9169 79.3424 8.85192 79.2537 8.78809C79.2393 8.77725 79.2245 8.76655 79.2098 8.75586C79.2035 8.75129 79.1966 8.74673 79.1903 8.74219C79.2115 8.75745 79.2329 8.77252 79.2537 8.78809ZM60.9686 8.81348C60.9645 8.80348 60.9593 8.79404 60.9549 8.78418C60.9593 8.79404 60.9645 8.80348 60.9686 8.81348ZM79.7684 8.65039C79.7621 8.66818 79.7554 8.6859 79.7498 8.7041C79.7554 8.6859 79.7621 8.66818 79.7684 8.65039ZM60.9032 8.67969C60.8949 8.66507 60.8857 8.651 60.8768 8.63672C60.8857 8.651 60.8949 8.66507 60.9032 8.67969ZM79.7996 8.56836C79.7974 8.57344 79.796 8.57887 79.7938 8.58398C79.804 8.56008 79.8153 8.53678 79.827 8.51367C79.8178 8.53181 79.8079 8.54973 79.7996 8.56836ZM78.9383 8.57422C78.87 8.53212 78.7986 8.49356 78.7264 8.4541C78.7986 8.49356 78.87 8.53212 78.9383 8.57422ZM60.8221 8.55762C60.8107 8.54237 60.8001 8.52655 60.7879 8.51172C60.8001 8.52655 60.8107 8.54237 60.8221 8.55762ZM78.2743 8.23242C78.3924 8.28299 78.5064 8.33623 78.6161 8.39258C78.3926 8.27774 78.1512 8.1748 77.8924 8.08398L78.2743 8.23242Z" fill="#410FD4"/>
</svg>
